<svg xmlns="http://www.w3.org/2000/svg" viewBox="0 0 32 32"><title>84-Bacon</title><g id="_84-Bacon" data-name="84-Bacon"><path fill="#ffffff" d="M27,16a7.1,7.1,0,0,0-1.13-4A5.19,5.19,0,0,1,25,9a5.18,5.18,0,0,1,.87-3A7.09,7.09,0,0,0,27,2a2,2,0,0,0-2-2H17a2,2,0,0,0-1,.26A2,2,0,0,0,15,0H7A2,2,0,0,0,5,2a5.18,5.18,0,0,1-.87,3A7.09,7.09,0,0,0,3,9a7.09,7.09,0,0,0,1.13,4A5.19,5.19,0,0,1,5,16a5.2,5.2,0,0,1-.87,3A7.1,7.1,0,0,0,3,23a7.1,7.1,0,0,0,1.13,4A5.2,5.2,0,0,1,5,30a2,2,0,0,0,2,2h8a2,2,0,0,0,1-.26A2,2,0,0,0,17,32h8a2,2,0,0,0,2-2,7.1,7.1,0,0,0-1.13-4A5.2,5.2,0,0,1,25,23a5.2,5.2,0,0,1,.87-3A7.1,7.1,0,0,0,27,16ZM12,30a7.1,7.1,0,0,0-1.13-4A5.2,5.2,0,0,1,10,23a5.2,5.2,0,0,1,.87-3A7.1,7.1,0,0,0,12,16a7.1,7.1,0,0,0-1.13-4A5.19,5.19,0,0,1,10,9H8a7.09,7.09,0,0,0,1.13,4A5.19,5.19,0,0,1,10,16a5.2,5.2,0,0,1-.87,3A7.1,7.1,0,0,0,8,23a7.1,7.1,0,0,0,1.13,4A5.2,5.2,0,0,1,10,30H7a7.1,7.1,0,0,0-1.13-4A5.2,5.2,0,0,1,5,23a5.2,5.2,0,0,1,.87-3A7.1,7.1,0,0,0,7,16a7.1,7.1,0,0,0-1.13-4A5.19,5.19,0,0,1,5,9a5.18,5.18,0,0,1,.87-3A7.09,7.09,0,0,0,7,2h8a5.18,5.18,0,0,1-.87,3A7.09,7.09,0,0,0,13,9a7.09,7.09,0,0,0,1.13,4A5.19,5.19,0,0,1,15,16a5.2,5.2,0,0,1-.87,3A7.1,7.1,0,0,0,13,23a7.1,7.1,0,0,0,1.13,4A5.2,5.2,0,0,1,15,30ZM24.13,19A7.1,7.1,0,0,0,23,23a7.1,7.1,0,0,0,1.13,4,5.62,5.62,0,0,1,.92,3H17a7.1,7.1,0,0,0-1.13-4A5.2,5.2,0,0,1,15,23a5.2,5.2,0,0,1,.87-3A7.1,7.1,0,0,0,17,16a7.1,7.1,0,0,0-1.13-4A5.19,5.19,0,0,1,15,9a5.18,5.18,0,0,1,.87-3A7.09,7.09,0,0,0,17,2h3a5.18,5.18,0,0,1-.87,3A7.09,7.09,0,0,0,18,9a7.09,7.09,0,0,0,1.13,4A5.19,5.19,0,0,1,20,16a5.2,5.2,0,0,1-.87,3A7.1,7.1,0,0,0,18,23h2a5.2,5.2,0,0,1,.87-3A7.1,7.1,0,0,0,22,16a7.1,7.1,0,0,0-1.13-4A5.19,5.19,0,0,1,20,9a5.18,5.18,0,0,1,.87-3A7.09,7.09,0,0,0,22,2h3a5.18,5.18,0,0,1-.87,3A7.09,7.09,0,0,0,23,9a7.09,7.09,0,0,0,1.13,4A5.19,5.19,0,0,1,25,16,5.2,5.2,0,0,1,24.13,19Z"/><rect fill="#ffffff" x="8" y="5" width="2" height="2"/><rect fill="#ffffff" x="18" y="25" width="2" height="2"/></g></svg>