<!DOCTYPE svg PUBLIC "-//W3C//DTD SVG 1.1//EN" "http://www.w3.org/Graphics/SVG/1.1/DTD/svg11.dtd">
<!-- Uploaded to: SVG Repo, www.svgrepo.com, Transformed by: SVG Repo Mixer Tools -->
<svg width="800px" height="800px" viewBox="0 0 32 32" version="1.1" xml:space="preserve" xmlns="http://www.w3.org/2000/svg" xmlns:xlink="http://www.w3.org/1999/xlink" fill="#ffffff">
<g id="SVGRepo_bgCarrier" stroke-width="0"/>
<g id="SVGRepo_tracerCarrier" stroke-linecap="round" stroke-linejoin="round"/>
<g id="SVGRepo_iconCarrier"> <style type="text/css"> .st0{stroke:#ffffff;stroke-width:2;stroke-linecap:round;stroke-linejoin:round;stroke-miterlimit:10;} </style> <g id="Musik_icon"> <path d="M27.67,14.65c-0.37-1.72-1.08-3.36-2.09-4.81l0.27-0.27C26.35,9.84,26.92,10,27.5,10c1.93,0,3.5-1.57,3.5-3.5 c0-1.46-0.91-2.75-2.24-3.26C28.25,1.91,26.96,1,25.5,1C23.57,1,22,2.57,22,4.5c0,0.58,0.16,1.15,0.43,1.65l-0.26,0.26 C19.93,4.85,17.24,4,14.5,4C7.06,4,1,10.06,1,17.5c0,1.74,0.34,3.42,0.99,5.02C1.39,22.98,1,23.69,1,24.5C1,25.88,2.12,27,3.5,27 h1.09l2.54,2.54C8.07,30.48,9.32,31,10.66,31h10.69c1.34,0,2.59-0.52,3.54-1.46L27.41,27h1.09c1.38,0,2.5-1.12,2.5-2.5 c0-0.66-0.26-1.26-0.68-1.71C30.77,21.94,31,20.99,31,20C31,17.72,29.68,15.65,27.67,14.65z M14.5,6c2.22,0,4.39,0.65,6.24,1.85 l-0.88,0.88C18.99,8.25,18.02,8,17,8c-3.31,0-6,2.69-6,6c0,0.55,0.45,1,1,1s1-0.45,1-1c0-2.21,1.79-4,4-4 c0.47,0,0.92,0.08,1.35,0.24l-0.06,0.06c-0.39,0.39-0.39,1.02,0,1.41C18.49,11.9,18.74,12,19,12s0.51-0.1,0.71-0.29l4.73-4.73 c0,0,0,0,0,0s0,0,0,0c0.06-0.06,0.09-0.13,0.13-0.2c0.03-0.05,0.07-0.08,0.09-0.13c0.03-0.07,0.03-0.14,0.04-0.21 c0.01-0.06,0.03-0.11,0.03-0.17c0-0.07-0.02-0.13-0.04-0.2c-0.01-0.06-0.01-0.12-0.04-0.18c-0.02-0.06-0.07-0.1-0.1-0.15 c-0.04-0.06-0.07-0.12-0.12-0.18c0,0,0,0,0,0s0,0,0,0C24.16,5.28,24,4.9,24,4.5C24,3.67,24.67,3,25.5,3c0.72,0,1.34,0.52,1.48,1.23 c0,0,0,0.01,0,0.01c0.02,0.08,0.05,0.14,0.09,0.22c0.02,0.05,0.03,0.1,0.06,0.15c0.02,0.03,0.05,0.04,0.07,0.07 c0.06,0.07,0.12,0.15,0.2,0.2c0.02,0.01,0.04,0.02,0.06,0.03c0.09,0.05,0.19,0.1,0.3,0.12c0,0,0.01,0,0.01,0 C28.48,5.16,29,5.78,29,6.5C29,7.33,28.33,8,27.5,8c-0.4,0-0.78-0.16-1.06-0.44c0,0,0,0,0,0s0,0,0,0 c-0.04-0.04-0.08-0.05-0.13-0.08c-0.17-0.13-0.37-0.21-0.58-0.21c-0.21,0-0.4,0.08-0.58,0.21c-0.04,0.03-0.09,0.05-0.13,0.08 c0,0,0,0,0,0s0,0,0,0l-4.73,4.73c-0.39,0.39-0.39,1.02,0,1.41C20.49,13.9,20.74,14,21,14c0,0.87-0.28,1.7-0.81,2.41 c-0.23,0.3-0.49,0.56-0.79,0.79c-0.44,0.33-0.53,0.96-0.19,1.4c0.2,0.26,0.5,0.4,0.8,0.4c0.21,0,0.42-0.07,0.6-0.2 c0.44-0.33,0.84-0.73,1.18-1.18C22.58,16.55,23,15.31,23,14c0-0.47-0.08-0.94-0.19-1.4l1.33-1.33c0.84,1.29,1.42,2.73,1.68,4.24 c0.01,0.05,0.03,0.08,0.05,0.13c0.02,0.05,0.03,0.11,0.06,0.16c0.03,0.07,0.08,0.12,0.12,0.18c0.03,0.04,0.06,0.08,0.09,0.11 c0.07,0.07,0.16,0.12,0.25,0.16c0.02,0.01,0.03,0.03,0.06,0.04C27.98,16.86,29,18.36,29,20c0,0.72-0.19,1.4-0.54,2H3.93 C3.33,20.57,3,19.06,3,17.5C3,11.16,8.16,6,14.5,6z"/> </g> </g>
</svg>