<!DOCTYPE svg PUBLIC "-//W3C//DTD SVG 1.1//EN" "http://www.w3.org/Graphics/SVG/1.1/DTD/svg11.dtd">
<!-- Uploaded to: SVG Repo, www.svgrepo.com, Transformed by: SVG Repo Mixer Tools -->
<svg width="800px" height="800px" viewBox="0 0 24 24" version="1.1" xmlns="http://www.w3.org/2000/svg" xmlns:xlink="http://www.w3.org/1999/xlink" fill="#000000">
<g id="SVGRepo_bgCarrier" stroke-width="0"/>
<g id="SVGRepo_tracerCarrier" stroke-linecap="round" stroke-linejoin="round"/>
<g id="SVGRepo_iconCarrier"> <title>Mushroom</title> <g id="Mushroom" stroke="none" stroke-width="1" fill="none" fill-rule="evenodd" stroke-linecap="round"> <path d="M13.7481703,5.99853623 L16.0183347,7.81466776 C16.4989887,8.19919096 16.7907393,8.73233295 16.880445,9.29582117 C15.8618202,8.90954636 14.7290827,8.79690302 13.5928462,9.02159386 L13.5928462,9.02159386 L12.6986165,9.19842783 C12.3164735,9.27399664 11.9527055,9.42326619 11.627627,9.63790056 C10.6498492,10.2834823 10.1730864,11.4031581 10.301246,12.4935697 C8.52562402,12.5142511 6.74904579,12.3498092 5,12 C3.71321459,11.7426429 2.87869805,10.4908681 3.13605513,9.2040827 C3.24569431,8.65588682 3.5451188,8.16390496 3.9816653,7.81466776 L6.25182971,5.99853623 C8.44314162,4.2454867 11.5568584,4.2454867 13.7481703,5.99853623 Z M7.49980323,12.3179562 C8.43043908,12.4282374 9.36564973,12.4870261 10.301163,12.4943222 C10.3540836,12.9444364 10.5109125,13.3913061 10.7790095,13.7973573 L10.7790095,13.7973573 L11.0799717,13.7249931 C11.7265565,13.5870931 12.3911349,13.5572623 13.0466905,13.6363107 L13.0948032,13.7859562 L11.5110603,16.5294081 C11.2867959,16.9178454 11.2076406,17.3502416 11.2567748,17.7638257 C10.8652925,17.9170534 10.4399178,18 10,18 C8.61928813,18 7.5,16.8807119 7.5,15.5 L7.49980323,12.3179562 Z M20.4362268,12.9726215 L20.7301989,13.8354641 C21.2645315,15.4037927 20.426312,17.1083364 18.8579834,17.642669 C18.5629994,17.7431706 18.2546157,17.7969431 17.9439737,17.8024822 L17.7072127,17.7973573 C17.4980353,17.0166967 17.1334055,16.2876749 16.6365312,15.6534257 L14.9751619,18.5294081 C14.4228771,19.4859934 13.1996963,19.8137437 12.2431111,19.2614589 C11.2865258,18.7091742 10.9587755,17.4859934 11.5110603,16.5294081 L13.1719341,13.6527544 C12.475932,13.5538984 11.7677715,13.578303 11.0799717,13.7249931 L10.7790095,13.7973573 C9.86415092,12.4117413 10.2449624,10.5508105 11.627627,9.63790056 C11.9527055,9.42326619 12.3164735,9.27399664 12.6986165,9.19842783 L13.5928462,9.02159386 C16.5416239,8.43847289 19.4668355,10.1273446 20.4362268,12.9726215 Z M13.1450349,11.6992811 C15.3306281,11.4215332 17.4889274,12.6676279 18.3411873,14.6992811" id="Combined-Shape" stroke="#ffffff"> </path> </g> </g>
</svg>