<!DOCTYPE svg PUBLIC "-//W3C//DTD SVG 1.1//EN" "http://www.w3.org/Graphics/SVG/1.1/DTD/svg11.dtd">
<!-- Uploaded to: SVG Repo, www.svgrepo.com, Transformed by: SVG Repo Mixer Tools -->
<svg width="800px" height="800px" viewBox="0 0 32 32" version="1.1" xml:space="preserve" xmlns="http://www.w3.org/2000/svg" xmlns:xlink="http://www.w3.org/1999/xlink" fill="#ffffff">
<g id="SVGRepo_bgCarrier" stroke-width="0"/>
<g id="SVGRepo_tracerCarrier" stroke-linecap="round" stroke-linejoin="round"/>
<g id="SVGRepo_iconCarrier"> <style type="text/css"> .st0{stroke:#ffffff;stroke-width:2;stroke-linecap:round;stroke-linejoin:round;stroke-miterlimit:10;} </style> <g id="Musik_icon"> <g> <path d="M29,12.54C28.41,12.2,27.73,12,27,12H5c-0.73,0-1.41,0.2-2,0.54C1.8,13.23,1,14.52,1,16c0,1.48,0.8,2.77,2,3.46 C3.59,19.8,4.27,20,5,20h22c0.73,0,1.41-0.2,2-0.54c1.2-0.69,2-1.98,2-3.46C31,14.52,30.2,13.23,29,12.54z M10,15 c0,0.55-0.45,1-1,1s-1-0.45-1-1v-1c0-0.55,0.45-1,1-1s1,0.45,1,1V15z M17,15c0,0.55-0.45,1-1,1s-1-0.45-1-1v-1c0-0.55,0.45-1,1-1 s1,0.45,1,1V15z M24,15c0,0.55-0.45,1-1,1s-1-0.45-1-1v-1c0-0.55,0.45-1,1-1s1,0.45,1,1V15z"/> <path d="M5,21c-0.71,0-1.39-0.15-2-0.41V21c0,2.76,2.24,5,5,5h16c2.76,0,5-2.24,5-5v-0.41C28.39,20.85,27.71,21,27,21H5z"/> <path d="M27,11c0.71,0,1.39,0.15,2,0.41V11c0-2.76-2.24-5-5-5H8c-2.76,0-5,2.24-5,5v0.41C3.61,11.15,4.29,11,5,11H27z"/> </g> </g> </g>
</svg>